<?xml version="1.0" encoding="UTF-8" standalone="no"?>
<!DOCTYPE svg PUBLIC "-//W3C//DTD SVG 1.1//EN" "http://www.w3.org/Graphics/SVG/1.1/DTD/svg11.dtd">

<svg
   xmlns:dc="http://purl.org/dc/elements/1.1/"
   xmlns:cc="http://creativecommons.org/ns#"
   xmlns:rdf="http://www.w3.org/1999/02/22-rdf-syntax-ns#"
   xmlns:svg="http://www.w3.org/2000/svg"
   xmlns="http://www.w3.org/2000/svg"
   id="svg2"
   version="1.1"
   width="600"
   height="732">
  <metadata
     id="metadata8">
  </metadata>
  <defs
     id="defs6">
  </defs>
  <g
     id="g3100"
     transform="matrix(9.6240602,0,0,9.6253921,-42.105263,-53.973421)">
    <path
       transform="matrix(0.18129632,1.2995992,-1.1974289,0.1967654,78.108147,87.963751)"
       d="m -31.543407,43.570037 -11.340277,-8.955764 2.08578,-14.29885 13.426058,-5.343086 11.340277,8.955763 -2.08578,14.29885 -13.426058,5.343087 z"
       id="path2818"
       style="fill:#990033;fill-opacity:1;stroke:none"
        />
    <path
       id="path2818-3"
       d="m 24.25,45.96875 -11.1875,0.0625 -8.6875,16.5 8.84375,16.40625 17.5,-0.125 3.09375,-5.90625 -5.25,0.03125 -9.34375,-17.375 5.03125,-9.59375 z"
       style="fill:#990033;fill-opacity:1;stroke:none" />
    <path
       id="path2818-1"
       d="m 58.625,30.21875 -16,0.09375 -4.0625,7.6875 8.3125,-0.0625 9.34375,17.40625 -2.53125,4.8125 5.09375,-0.03125 7.9375,-15 L 58.625,30.21875 z"
       style="fill:#990033;fill-opacity:1;stroke:none" />
    <path
       id="path2818-1-2"
       d="M 57.40625,64.65625 51.34375,64.6875 47.0625,72.84375 43.375,72.875 43.1875,73.1875 48,81.65625 l 9.5,-0.0625 4.6875,-8.5 -4.78125,-8.4375 z"
       style="fill:#990033;fill-opacity:1;stroke:none" />
    <path
       id="path2818-1-2-5"
       d="m 46.5,22.40625 -9.5,0.0625 -4.71875,8.5 4,7.03125 1.25,0 4.59375,-8.6875 8.25,-0.03125 -3.875,-6.875 z"
       style="fill:#990033;fill-opacity:1;stroke:none" />
    <g
       id="flowRoot2897"
       style="font-size:15px;font-style:normal;font-variant:normal;font-weight:bold;font-stretch:normal;fill:#990033;fill-opacity:1;stroke:none;font-family:Arial;-inkscape-font-specification:'10 Minutes Bold'"
       transform="translate(8.0418415,-3.2958366)">
      <path
         style="fill:#990033;fill-opacity:1"
         id="path2906"
         d="m 7.0239258,15.875893 2.1020508,0.666503 c -0.3222754,1.171878 -0.8593842,2.043459 -1.6113282,2.614747 -0.747078,0.566406 -1.6967841,0.849609 -2.8491211,0.849609 -1.4257854,0 -2.5976592,-0.48584 -3.515625,-1.45752 -0.91796988,-0.97656 -1.37695379,-2.309566 -1.37695308,-3.999023 -7.1e-7,-1.787102 0.46142461,-3.17382 1.38427738,-4.160156 0.9228485,-0.9912008 2.1362262,-1.4868057 3.6401367,-1.4868167 1.3134695,1.1e-5 2.380363,0.3881942 3.2006836,1.1645507 0.4882718,0.458994 0.8544824,1.118173 1.0986328,1.977539 L 6.9506836,12.558021 C 6.8237227,12.001389 6.5576097,11.561936 6.1523437,11.239662 5.7519464,10.917405 5.2636657,10.756273 4.6875,10.756264 c -0.7959033,9e-6 -1.4428753,0.285653 -1.940918,0.856933 -0.4931672,0.571297 -0.739749,1.496589 -0.7397461,2.775879 -2.9e-6,1.357426 0.2441375,2.324222 0.7324219,2.900391 0.4882771,0.576174 1.1230421,0.864259 1.9042969,0.864258 0.5761657,10e-7 1.0717707,-0.183104 1.4868164,-0.549317 0.4150316,-0.366208 0.7128828,-0.942379 0.8935547,-1.728515" />
      <path
         style="fill:#990033;fill-opacity:1"
         id="path2908"
         d="m 20.67627,19.823646 -2.358399,0 -0.9375,-2.438964 -4.291992,0 -0.886231,2.438964 -2.2998042,0 4.1821292,-10.7373042 2.29248,0 4.299317,10.7373042 m -3.9917,-4.248046 -1.479492,-3.984375 -1.450195,3.984375 2.929687,0" />
      <path
         style="fill:#990033;fill-opacity:1"
         id="path2910"
         d="m 21.84082,19.823646 0,-10.7373042 4.562989,0 c 1.147454,1.07e-5 1.979972,0.097667 2.497558,0.2929688 0.522452,0.1904399 0.939932,0.5322364 1.252442,1.0253904 0.31249,0.493173 0.46874,1.057137 0.46875,1.691895 -10e-6,0.805671 -0.236826,1.472174 -0.71045,1.999511 -0.473641,0.522467 -1.181648,0.852056 -2.124023,0.98877 0.468742,0.273442 0.854484,0.573735 1.157226,0.900879 0.307609,0.327152 0.720206,0.908206 1.237793,1.743164 l 1.311036,2.094726 -2.592774,0 -1.567383,-2.336425 c -0.556646,-0.834958 -0.937505,-1.35986 -1.142578,-1.574707 -0.205083,-0.219723 -0.422368,-0.368648 -0.651855,-0.446778 -0.229497,-0.083 -0.593266,-0.124507 -1.091309,-0.124511 l -0.439453,0 0,4.482421 -2.167969,0 m 2.167969,-6.196289 1.604004,0 c 1.040033,7e-6 1.689447,-0.04394 1.948242,-0.131836 0.258782,-0.08788 0.461419,-0.239251 0.60791,-0.454101 0.146477,-0.214837 0.219719,-0.483391 0.219727,-0.805664 -8e-6,-0.36132 -0.09766,-0.651847 -0.292969,-0.871582 -0.190437,-0.224601 -0.461433,-0.366202 -0.812988,-0.424805 -0.175788,-0.0244 -0.703131,-0.03661 -1.582031,-0.03662 l -1.691895,0 0,2.724609" />
      <path
         style="fill:#990033;fill-opacity:1"
         id="path2912"
         d="m 32.67334,19.823646 0,-10.7373042 7.961426,0 0,1.8164062 -5.793457,0 0,2.380371 5.390625,0 0,1.809082 -5.390625,0 0,2.922363 5.998535,0 0,1.809082 -8.166504,0" />
      <path
         style="fill:#990033;fill-opacity:1"
         id="path2914"
         d="m 42.663574,19.823646 0,-10.7373042 3.244629,0 1.948242,7.3242192 1.92627,-7.3242192 3.251953,0 0,10.7373042 -2.01416,0 0,-8.452148 -2.131348,8.452148 -2.087402,0 -2.124024,-8.452148 0,8.452148 -2.01416,0" />
    </g>
  </g>
</svg>
