<?xml version="1.0" encoding="UTF-8" standalone="no"?>
<!-- Created with Inkscape (http://www.inkscape.org/) -->

<svg
   xmlns:dc="http://purl.org/dc/elements/1.1/"
   xmlns:cc="http://creativecommons.org/ns#"
   xmlns:rdf="http://www.w3.org/1999/02/22-rdf-syntax-ns#"
   xmlns:svg="http://www.w3.org/2000/svg"
   xmlns="http://www.w3.org/2000/svg"
   xmlns:sodipodi="http://sodipodi.sourceforge.net/DTD/sodipodi-0.dtd"
   xmlns:inkscape="http://www.inkscape.org/namespaces/inkscape"
   width="34.629074mm"
   height="30.641405mm"
   viewBox="0 0 122.70144 108.57191"
   id="svg2"
   version="1.1"
   inkscape:version="0.91 r13725"
   sodipodi:docname="RA10.svg">
  <defs
     id="defs4" />
  <sodipodi:namedview
     id="base"
     pagecolor="#ffffff"
     bordercolor="#666666"
     borderopacity="1.0"
     inkscape:pageopacity="0.0"
     inkscape:pageshadow="2"
     inkscape:zoom="1.4142136"
     inkscape:cx="182.39711"
     inkscape:cy="76.292663"
     inkscape:document-units="px"
     inkscape:current-layer="layer1"
     showgrid="false"
     fit-margin-top="0"
     fit-margin-left="0"
     fit-margin-right="0"
     fit-margin-bottom="0"
     inkscape:window-width="1366"
     inkscape:window-height="703"
     inkscape:window-x="0"
     inkscape:window-y="0"
     inkscape:window-maximized="1" />
  <metadata
     id="metadata7">
    <rdf:RDF>
      <cc:Work
         rdf:about="">
        <dc:format>image/svg+xml</dc:format>
        <dc:type
           rdf:resource="http://purl.org/dc/dcmitype/StillImage" />
        <dc:title></dc:title>
      </cc:Work>
    </rdf:RDF>
  </metadata>
  <g
     inkscape:label="Layer 1"
     inkscape:groupmode="layer"
     id="layer1"
     transform="translate(-145.53516,-594.82135)">
    <g
       transform="matrix(1.5838742,0,0,1.5838742,585.58661,575.93933)"
       id="layer1-6"
       inkscape:label="Layer 1">
      <g
         transform="matrix(0.08261491,0,0,0.08261491,-235.28221,29.459713)"
         id="g4150">
        <circle
           style="opacity:1;fill:none;fill-opacity:1;stroke:#639dcb;stroke-width:15;stroke-miterlimit:4;stroke-dasharray:none;stroke-dashoffset:0;stroke-opacity:1"
           id="path4153"
           cx="273.75134"
           cy="185.14624"
           r="141.42136" />
        <circle
           r="111.20406"
           cy="185.14624"
           cx="273.75134"
           id="circle4155"
           style="opacity:1;fill:none;fill-opacity:1;stroke:#639dcb;stroke-width:15;stroke-miterlimit:4;stroke-dasharray:none;stroke-dashoffset:0;stroke-opacity:1" />
        <path
           inkscape:connector-curvature="0"
           style="opacity:1;fill:#000000;fill-rule:evenodd;stroke:#000000;stroke-width:1px;stroke-linecap:butt;stroke-linejoin:miter;stroke-opacity:1"
           d="m 325,104.57227 0,159.57617 14.375,-10.17969 0,-60.625 13.48242,0 c -0.59341,10.31776 -3.95139,20.17575 -8.57226,29.82227 l 12.14257,7.76757 C 385.48568,172.74054 353.59457,120.70018 325,104.57227 Z m 15.92578,39.78906 c 8.19216,11.06165 11.80033,22.65286 11.23828,34.72461 l -11.36328,0 z"
           id="path4164" />
        <path
           style="opacity:1;fill:#000000;fill-opacity:1;stroke:#000000;stroke-width:0.85002762;stroke-miterlimit:4;stroke-dasharray:none;stroke-dashoffset:0;stroke-opacity:1"
           d="m 220.17694,245.29106 c -16.54904,-14.75163 -26.9705,-36.23119 -26.9705,-60.14482 0,-23.83786 10.35553,-45.25706 26.81339,-60.0044 l -0.0183,-18.06805 c -24.77088,17.11726 -41.00583,45.69892 -41.00583,78.07245 0,32.42131 16.2829,61.03954 41.11707,78.12307 z"
           id="circle4173"
           inkscape:connector-curvature="0"
           sodipodi:nodetypes="csccsc" />
        <path
           sodipodi:nodetypes="csccccccccccccc"
           inkscape:connector-curvature="0"
           id="path4179"
           d="m 290.7235,106.27484 c 8.05593,1.71615 15.98357,4.70708 23.50225,9.048 1.86442,1.07642 3.41698,1.86889 5.16162,3.0676 l -0.0613,-16.55494 C 305.46569,94.300935 290.35088,90.551024 275.53558,90.317097 l 0.0153,175.788103 0.0884,13.91644 c 15.15664,-0.27706 30.2573,-4.16267 43.90163,-11.65924 l -0.011,-16.67202 c -8.89531,6.11948 -18.74987,10.25052 -28.9499,12.39266 l -0.0176,-70.73869 23.68393,0.0223 0.0236,-14.66298 -23.74628,-0.0245 z"
           style="opacity:1;fill:#000000;fill-opacity:1;stroke:#000000;stroke-width:0.85002762;stroke-miterlimit:4;stroke-dasharray:none;stroke-dashoffset:0;stroke-opacity:1"
           inkscape:transform-center-x="-26.9061"
           inkscape:transform-center-y="-51.235007" />
        <path
           sodipodi:nodetypes="cccccccccccc"
           inkscape:connector-curvature="0"
           id="path4193"
           d="m 269.4927,90.636677 c -4.72125,0.188255 -9.45022,0.731257 -14.14702,1.639771 l 0.0987,84.795862 -14.88345,-80.660127 c -4.80701,1.778345 -9.53214,3.971227 -14.12939,6.591047 l 0.19748,147.27842 0.12862,16.97217 c 4.32189,2.44011 8.88137,4.56335 13.63223,6.43515 l 0.004,-78.61998 15.06771,82.72905 c 4.62566,0.89745 9.24868,1.43929 13.83864,1.64308 z"
           style="opacity:1;fill:#000000;fill-opacity:1;stroke:#000000;stroke-width:0.85002762;stroke-miterlimit:4;stroke-dasharray:none;stroke-dashoffset:0;stroke-opacity:1"
           inkscape:transform-center-x="26.636831"
           inkscape:transform-center-y="-50.72717" />
      </g>
    </g>
    <path
       style="opacity:1;fill:#000000;fill-opacity:1"
       d="m 195.19727,627.49609 c -1.28918,0.0643 -2.71333,0.61883 -3.54883,1.78516 l -21.34961,31.83008 -5.95508,-6.69922 c 18.43746,-6.57469 10.16989,-25.29902 0.11914,-26.51367 l -18.92773,0 0,38.07422 7.5,0 0,-31.65625 9.64257,0 c 5.47673,-0.10931 9.00515,12.60937 -3.39257,13.85937 -7.69035,-0.22813 -6.75257,4.24587 -4.13477,7.11524 l 9.74414,10.68164 10.38086,0 5.34961,-8.25391 10.03125,0 0,8.25391 7.94922,0 -0.63672,-36.54688 c 0.32207,-1.28305 -1.11398,-2.01229 -2.77148,-1.92969 z m -4.02735,13.68555 -0.01,10.37695 -7.0625,-0.0703 7.07226,-10.30664 z"
       id="rect3367"
       inkscape:connector-curvature="0" />
    <path
       id="path4174"
       d="m 218.92802,665.97266 7.5,0 0,-26.12054 c 0,-7.21731 -5.82243,-11.59448 -15.17868,-11.59448 l -0.008,6.71516 c 5.82323,0.24399 7.68702,2.05837 7.68702,5.51492 z"
       style="opacity:1;fill:#000000;fill-opacity:1"
       inkscape:connector-curvature="0"
       sodipodi:nodetypes="ccccccc" />
    <path
       style="opacity:1;fill:#000000;fill-opacity:1"
       d="m 185.4821,623.08262 c -11.79734,-53.83177 39.15387,-18.14843 52.62885,3.83602 0.79509,1.5471 -1.10855,2.04992 -1.51522,1.4428 -11.35057,-15.70324 -58.08285,-53.31476 -49.40823,-5.01709 0.11865,0.66059 -1.40525,0.86296 -1.7054,-0.26173 z"
       id="rect4176"
       inkscape:connector-curvature="0"
       sodipodi:nodetypes="cccsc" />
    <path
       sodipodi:nodetypes="cccsc"
       inkscape:connector-curvature="0"
       id="path4180"
       d="m 260.49923,666.45037 c 19.9284,61.71643 -31.30991,32.74144 -46.87885,8.72648 -0.79509,-1.5471 1.10855,-2.04992 1.51522,-1.4428 12.35492,16.9719 57.32165,46.94207 43.84573,-7.42041 -0.16149,-0.65144 1.21775,-0.98796 1.5179,0.13673 z"
       style="opacity:1;fill:#000000;fill-opacity:1" />
    <text
       xml:space="preserve"
       style="font-style:normal;font-weight:normal;font-size:35.8862648px;line-height:125%;font-family:sans-serif;letter-spacing:0px;word-spacing:0px;fill:#000000;fill-opacity:1;stroke:none;stroke-width:1px;stroke-linecap:butt;stroke-linejoin:miter;stroke-opacity:1"
       x="148.80643"
       y="658.05151"
       id="text4182"
       sodipodi:linespacing="125%"
       transform="scale(0.97163345,1.0291947)"><tspan
         sodipodi:role="line"
         id="tspan4184"
         x="148.80643"
         y="658.05151"
         style="font-style:oblique;font-variant:normal;font-weight:bold;font-stretch:normal;font-size:11.21445847px;font-family:'CMU Sans Serif';-inkscape-font-specification:'CMU Sans Serif Bold Oblique'">REACTOR</tspan></text>
  </g>
</svg>
